Coordinates
version=1
nRows=10
nColumns=40
inDegrees=yes

Units are S.I. units (second, meters, Newtons, ...)
Angles are in degrees.

endheader
time	pelvis_tilt	pelvis_list	pelvis_rotation	pelvis_tx	pelvis_ty	pelvis_tz	hip_flexion_r	hip_adduction_r	hip_rotation_r	knee_angle_r	knee_angle_r_beta	ankle_angle_r	subtalar_angle_r	mtp_angle_r	hip_flexion_l	hip_adduction_l	hip_rotation_l	knee_angle_l	knee_angle_l_beta	ankle_angle_l	subtalar_angle_l	mtp_angle_l	lumbar_extension	lumbar_bending	lumbar_rotation	arm_flex_r	arm_add_r	arm_rot_r	elbow_flex_r	pro_sup_r	wrist_flex_r	wrist_dev_r	arm_flex_l	arm_add_l	arm_rot_l	elbow_flex_l	pro_sup_l	wrist_flex_l	wrist_dev_l
     45.80800000	     -5.73499299	     -4.28569407	     -2.50239070	      0.93328571	      0.93328566	      0.43385699	     33.48795682	     -3.98134082	     -5.85918565	     47.32867367	     47.32867367	      4.84208929	    -11.72686393	      2.02877481	     10.85964513	     -3.47742966	     -8.99107455	     16.43707554	     16.43707554	     14.08931754	     -2.62063821	     -4.67715222	    -10.31622860	      2.78421982	     -0.18572686	     -8.94926153	    -13.88662070	     -0.01407176	     27.74311094	     46.29402528	      0.00000000	      0.00000000	     22.95374779	    -16.79585710	     -8.21507992	     49.44100633	     46.75970223	      0.00000000	      0.00000000
     45.82100000	     -5.69857222	     -4.20161339	     -2.70763700	      0.93193074	      0.93303034	      0.43458878	     33.27191163	     -3.78475748	     -5.82685759	     43.67690127	     43.67690127	      4.70806382	    -10.41973188	      1.76526594	     10.39525987	     -3.44735935	     -9.25336613	     16.38895683	     16.38895683	     14.39225291	     -2.44463636	     -4.70532607	    -10.63191538	      2.64284029	      0.20950798	    -10.70115034	    -13.95133790	     -0.43595752	     26.91725138	     46.34525347	      0.00000000	      0.00000000	     23.73195529	    -16.58855808	     -9.02276338	     51.65289348	     46.86541333	      0.00000000	      0.00000000
     45.83400000	     -5.84835860	     -4.21367803	     -2.87538506	      0.93057375	      0.93251767	      0.43551277	     33.10197495	     -3.46427757	     -5.99361993	     39.77068508	     39.77068508	      4.52381406	     -9.08945417	      1.96782071	     10.15411572	     -3.52213579	     -9.33372398	     16.37341450	     16.37341450	     14.70061676	     -2.45140825	     -4.76236500	    -10.59805672	      2.57134189	     -0.02121653	    -12.07741202	    -14.08109015	     -0.68940465	     26.41364287	     46.37355455	      0.00000000	      0.00000000	     24.29528970	    -16.84490364	     -9.47019884	     52.78759736	     46.92273347	      0.00000000	      0.00000000
     45.84700000	     -5.96771194	     -4.19028318	     -3.04755418	      0.92927583	      0.93198994	      0.43656578	     32.78930690	     -3.15949278	     -6.24128337	     35.73324893	     35.73324893	      4.28874518	     -7.45800249	      2.17689041	      9.85900610	     -3.56285087	     -9.46280699	     16.32343103	     16.32343103	     15.00381759	     -2.41379123	     -4.78556775	    -10.65758572	      2.47634431	     -0.01957779	    -13.43097371	    -14.13463138	     -0.95565884	     25.90510843	     46.40361728	      0.00000000	      0.00000000	     24.87817726	    -16.94512715	     -9.95731491	     54.20918564	     46.98908695	      0.00000000	      0.00000000
     45.86000000	     -6.10391838	     -4.12057380	     -3.20644610	      0.92806012	      0.93136244	      0.43768699	     32.40723493	     -2.87895883	     -6.57808205	     31.63976048	     31.63976048	      4.03561428	     -5.62298525	      2.47305277	      9.55935318	     -3.55608956	     -9.59845028	     16.24529537	     16.24529537	     15.31459532	     -2.33606086	     -4.80795602	    -10.69594207	      2.34257753	      0.00198996	    -14.68049087	    -14.17528599	     -1.23931865	     25.49057579	     46.43214525	      0.00000000	      0.00000000	     25.37358386	    -16.99726029	    -10.43694727	     55.70341606	     47.05470174	      0.00000000	      0.00000000
     45.87300000	     -6.21485939	     -3.93531000	     -3.40188955	      0.92701565	      0.93066389	      0.43891674	     31.96787678	     -2.74185606	     -7.15898780	     27.65877197	     27.65877197	      3.67375206	     -3.23569145	      2.53911419	      9.17362034	     -3.44026756	     -9.90986419	     16.08468015	     16.08468015	     15.69478527	     -2.01122075	     -4.71814473	    -10.81144799	      2.03812503	      0.01502384	    -15.78315624	    -14.07880515	     -2.00142426	     25.32765239	     46.48901902	      0.00000000	      0.00000000	     25.40546392	    -16.94168822	    -11.43545881	     58.40854858	     47.17667552	      0.00000000	      0.00000000
     45.88600000	     -6.45530407	     -3.85374771	     -3.54065246	      0.92601970	      0.92978344	      0.44034005	     31.57467987	     -2.34423387	     -7.50786364	     23.72278106	     23.72278106	      3.18972355	     -1.52986895	      3.39117053	      8.94815210	     -3.42993437	    -10.00859180	     15.94943973	     15.94943973	     15.96119776	     -1.99530167	     -4.80096219	    -10.64401382	      1.90998149	     -0.09910408	    -16.64378633	    -14.09718978	     -2.18245844	     25.05909144	     46.50644791	      0.00000000	      0.00000000	     25.76777161	    -17.09271386	    -11.68643292	     59.27223664	     47.21343512	      0.00000000	      0.00000000
     45.89900000	     -6.52391748	     -3.78049985	     -3.66256391	      0.92534888	      0.92910310	      0.44180712	     30.95172997	     -2.01149675	     -8.24073706	     20.06507353	     20.06507353	      2.74945969	      0.70606171	      4.45154380	      8.43425124	     -3.41578251	    -10.17535390	     15.67008779	     15.67008779	     16.23737326	     -1.79692571	     -4.92026047	    -10.70070217	      1.77607770	     -0.00918015	    -17.51748741	    -14.11514645	     -2.40635338	     24.83998390	     46.52483547	      0.00000000	      0.00000000	     26.05835679	    -17.01723576	    -11.96633792	     60.55785132	     47.25683328	      0.00000000	      0.00000000
     45.91200000	     -6.66430170	     -3.61141617	     -3.79889837	      0.92484431	      0.92818766	      0.44337608	     30.50831842	     -1.75375794	     -8.94299801	     16.94192998	     16.94192998	      2.34086104	      2.79430639	      5.68307464	      7.94747772	     -3.30523224	    -10.39948052	     15.31200278	     15.31200278	     16.48732209	     -1.53479755	     -5.08754853	    -10.61863262	      1.53289611	      0.07073203	    -18.18412844	    -14.03839416	     -2.60058467	     24.73491300	     46.53759282	      0.00000000	      0.00000000	     26.23345737	    -16.92787100	    -12.19569319	     61.75158685	     47.29478430	      0.00000000	      0.00000000
     45.92500000	     -6.64190270	     -3.44260669	     -3.90446697	      0.92461846	      0.92742324	      0.44499220	     30.00566805	     -1.57283563	     -9.95758000	     14.51375968	     14.51375968	      2.24746514	      5.08255887	      7.48185119	      7.19934697	     -3.17628412	    -10.70437024	     14.82387194	     14.82387194	     16.72318483	     -1.10603476	     -5.39500623	    -10.75533144	      1.32498629	      0.12935278	    -18.75696760	    -14.04164339	     -2.93773725	     24.76897869	     46.55609331	      0.00000000	      0.00000000	     26.18674373	    -16.86365060	    -12.53958131	     63.37421151	     47.34861934	      0.00000000	      0.00000000
